HIERARCHY
ROOT hip
{
  OFFSET 0 0 0
  CHANNELS 6 Xposition Yposition Zposition Zrotation Yrotation Xrotation
  JOINT abdomen
  {
    OFFSET 0 20.6881 -0.73152
    CHANNELS 3 Zrotation Xrotation Yrotation
    JOINT chest
    {
      OFFSET 0 11.7043 -0.48768
      CHANNELS 3 Zrotation Xrotation Yrotation
      JOINT neck
      {
        OFFSET 0 22.1894 -2.19456
        CHANNELS 3 Zrotation Xrotation Yrotation
        JOINT head
        {
          OFFSET -0.24384 7.07133 1.2192
          CHANNELS 3 Zrotation Xrotation Yrotation
          JOINT leftEye
          {
            OFFSET 4.14528 8.04674 8.04672
            CHANNELS 3 Zrotation Xrotation Yrotation
            End Site
            {
              OFFSET 1 0 0
            }
          }
          JOINT rightEye
          {
            OFFSET -3.6576 8.04674 8.04672
            CHANNELS 3 Zrotation Xrotation Yrotation
            End Site
            {
              OFFSET 1 0 0
            }
          }
        }
      }
      JOINT rCollar
      {
        OFFSET -2.68224 19.2634 -4.8768
        CHANNELS 3 Zrotation Xrotation Yrotation
        JOINT rShldr
        {
          OFFSET -8.77824 -1.95073 1.46304
          CHANNELS 3 Zrotation Xrotation Yrotation
          JOINT rForeArm
          {
            OFFSET -28.1742 -1.7115 0.48768
            CHANNELS 3 Zrotation Xrotation Yrotation
            JOINT rHand
            {
              OFFSET -22.5879 0.773209 7.07136
              CHANNELS 3 Zrotation Xrotation Yrotation
              JOINT rThumb1
              {
                OFFSET -1.2192 -0.487915 3.41376
                CHANNELS 3 Zrotation Xrotation Yrotation
                JOINT rThumb2
                {
                  OFFSET -3.37035 -0.52449 3.41376
                  CHANNELS 3 Zrotation Xrotation Yrotation
                  End Site
                  {
                    OFFSET -1.78271 -1.18214 1.43049
                  }
                }
              }
              JOINT rIndex1
              {
                OFFSET -7.75947 0.938293 5.60832
                CHANNELS 3 Zrotation Xrotation Yrotation
                JOINT rIndex2
                {
                  OFFSET -2.54057 -0.884171 1.56538
                  CHANNELS 3 Zrotation Xrotation Yrotation
                  End Site
                  {
                    OFFSET -1.62519 -0.234802 1.16502
                  }
                }
              }
              JOINT rMid1
              {
                OFFSET -8.24714 1.18213 3.41376
                CHANNELS 3 Zrotation Xrotation Yrotation
                JOINT rMid2
                {
                  OFFSET -3.10165 -0.590103 1.0647
                  CHANNELS 3 Zrotation Xrotation Yrotation
                  End Site
                  {
                    OFFSET -2.48547 -0.328903 0.83742
                  }
                }
              }
              JOINT rRing1
              {
                OFFSET -8.82822 0.546677 1.51678
                CHANNELS 3 Zrotation Xrotation Yrotation
                JOINT rRing2
                {
                  OFFSET -2.60934 -0.819778 -0.0198488
                  CHANNELS 3 Zrotation Xrotation Yrotation
                  End Site
                  {
                    OFFSET -2.33842 -0.294052 0.168128
                  }
                }
              }
              JOINT rPinky1
              {
                OFFSET -8.27202 -0.0477905 -0.4584
                CHANNELS 3 Zrotation Xrotation Yrotation
                JOINT rPinky2
                {
                  OFFSET -1.82734 -0.647385 -0.700984
                  CHANNELS 3 Zrotation Xrotation Yrotation
                  End Site
                  {
                    OFFSET -1.69225 -0.51767 -0.607171
                  }
                }
              }
            }
          }
        }
      }
      JOINT lCollar
      {
        OFFSET 2.68224 19.2634 -4.8768
        CHANNELS 3 Zrotation Xrotation Yrotation
        JOINT lShldr
        {
          OFFSET 8.77824 -1.95073 1.46304
          CHANNELS 3 Zrotation Xrotation Yrotation
          JOINT lForeArm
          {
            OFFSET 28.1742 -1.7115 0.48768
            CHANNELS 3 Zrotation Xrotation Yrotation
            JOINT lHand
            {
              OFFSET 22.5879 0.773209 7.07136
              CHANNELS 3 Zrotation Xrotation Yrotation
              JOINT lThumb1
              {
                OFFSET 1.2192 -0.487915 3.41376
                CHANNELS 3 Zrotation Xrotation Yrotation
                JOINT lThumb2
                {
                  OFFSET 3.37035 -0.52449 3.41376
                  CHANNELS 3 Zrotation Xrotation Yrotation
                  End Site
                  {
                    OFFSET 1.78271 -1.18214 1.43049
                  }
                }
              }
              JOINT lIndex1
              {
                OFFSET 7.75947 0.938293 5.60832
                CHANNELS 3 Zrotation Xrotation Yrotation
                JOINT lIndex2
                {
                  OFFSET 2.54057 -0.884171 1.56538
                  CHANNELS 3 Zrotation Xrotation Yrotation
                  End Site
                  {
                    OFFSET 1.62519 -0.234802 1.16502
                  }
                }
              }
              JOINT lMid1
              {
                OFFSET 8.24714 1.18213 3.41376
                CHANNELS 3 Zrotation Xrotation Yrotation
                JOINT lMid2
                {
                  OFFSET 3.10165 -0.590103 1.0647
                  CHANNELS 3 Zrotation Xrotation Yrotation
                  End Site
                  {
                    OFFSET 2.48547 -0.328903 0.83742
                  }
                }
              }
              JOINT lRing1
              {
                OFFSET 8.82822 0.546677 1.51678
                CHANNELS 3 Zrotation Xrotation Yrotation
                JOINT lRing2
                {
                  OFFSET 2.60934 -0.819778 -0.0198488
                  CHANNELS 3 Zrotation Xrotation Yrotation
                  End Site
                  {
                    OFFSET 2.33842 -0.294052 0.168128
                  }
                }
              }
              JOINT lPinky1
              {
                OFFSET 8.27202 -0.0477905 -0.4584
                CHANNELS 3 Zrotation Xrotation Yrotation
                JOINT lPinky2
                {
                  OFFSET 1.82734 -0.647385 -0.700984
                  CHANNELS 3 Zrotation Xrotation Yrotation
                  End Site
                  {
                    OFFSET 1.69225 -0.51767 -0.607171
                  }
                }
              }
            }
          }
        }
      }
    }
  }
  JOINT rButtock
  {
    OFFSET -8.77824 4.35084 1.2192
    CHANNELS 3 Zrotation Xrotation Yrotation
    JOINT rThigh
    {
      OFFSET 0 -1.70687 -2.19456
      CHANNELS 3 Zrotation Xrotation Yrotation
      JOINT rShin
      {
        OFFSET 0 -36.8199 0.73152
        CHANNELS 3 Zrotation Xrotation Yrotation
        JOINT rFoot
        {
          OFFSET 0.73152 -45.1104 -5.12064
          CHANNELS 3 Zrotation Xrotation Yrotation
          End Site
          {
            OFFSET -1.1221 -3.69964 12.103
          }
        }
      }
    }
  }
  JOINT lButtock
  {
    OFFSET 8.77824 4.35084 1.2192
    CHANNELS 3 Zrotation Xrotation Yrotation
    JOINT lThigh
    {
      OFFSET 0 -1.70687 -2.19456
      CHANNELS 3 Zrotation Xrotation Yrotation
      JOINT lShin
      {
        OFFSET 0 -36.8199 0.73152
        CHANNELS 3 Zrotation Xrotation Yrotation
        JOINT lFoot
        {
          OFFSET -0.73152 -45.1104 -5.12064
          CHANNELS 3 Zrotation Xrotation Yrotation
          End Site
          {
            OFFSET 1.1221 -3.69964 12.103
          }
        }
      }
    }
  }
}
MOTION
Frames:	9
Frame Time:	0.03333
0.0 0.0 0.0 0.0 0.0 0.0 0.0 0.0 0.0 0.0 0.0 0.0 0.0 0.0 0.0 0.0 0.0 0.0 0.0 0.0 0.0 0.0 0.0 0.0 0.0 0.0 0.0 0.0 0.0 0.0 0.0 0.0 0.0 0.0 0.0 0.0 0.0 0.0 0.0 0.0 0.0 0.0 0.0 0.0 0.0 0.0 0.0 0.0 0.0 0.0 0.0 0.0 0.0 0.0 0.0 0.0 0.0 0.0 0.0 0.0 0.0 0.0 0.0 0.0 0.0 0.0 0.0 0.0 0.0 0.0 0.0 0.0 0.0 0.0 0.0 0.0 0.0 0.0 0.0 0.0 0.0 0.0 0.0 0.0 0.0 0.0 0.0 0.0 0.0 0.0 0.0 0.0 0.0 0.0 0.0 0.0 0.0 0.0 0.0 0.0 0.0 0.0 0.0 0.0 0.0 0.0 0.0 0.0 0.0 0.0 0.0 0.0 0.0 0.0 0.0 0.0 0.0 0.0 0.0 0.0 0.0 0.0 0.0 0.0 0.0 0.0 0.0 0.0 0.0 0.0 0.0 0.0
-0.15360000000000001 62.0719 0.0544 179.937613 20.351812 179.036626 0.771458 -1.263289 -155.72574 -6.814965 -11.014112 142.634138 -7.993189 -4.913187 -119.044414 30.255474 -24.469551 39.805713 -6.246206 0.44263 -8.098887 57.463426 -0.093697 -0.170917 19.756887 65.245257 60.900991 -164.763515 -1.419488 170.774598 175.380382 -50.663983 -50.537467 -16.039286 36.440364 -44.659112 1.674967 -9.109159 42.233163 128.94651 6.276416 -95.264577 81.633365 49.011234 -71.307741 -17.576716 37.140989 -101.625086 133.640295 21.423122 -107.460215 -54.639803 58.846198 28.18722 -88.01547 9.070007 -103.555748 -161.27837 1.036474 -179.14507 0.434457 8.756686 -64.765739 8.493459 18.299509 6.892089 78.751536 -20.679124 -165.747816 -8.685508 16.240608 -7.885369 168.960502 75.556186 17.30897 -171.056874 14.308101 -113.117754 173.182531 7.326271 -77.529118 -54.485074 -66.561173 -12.132166 162.017402 12.40422 -86.430754 15.241403 19.943693 -0.696252 -150.211327 2.326268 -163.166116 21.490086 64.328148 57.330168 95.432069 42.882982 91.638281 134.352718 -40.065394 164.906922 -32.137304 -6.910068 83.950079 125.275522 -25.50744 119.005779 -40.929085 -27.769387 -61.750222 -1.138019 49.513213 0.0 2.67132 -7.172551 32.763544 73.847447 12.499691 -86.108431 -37.147897 -35.993986 -50.730583 1.186655 51.030795 -0.90783 -6.937869 0.741042 -107.790164 -70.629011 -22.544661 98.699429
-0.3663 63.8765 -0.6168 -9.362521 0.002589 3.031332 0.300905 24.740417 8.390782 4.977975 -19.278946 1.450337 -7.280266 22.446841 -64.922876 47.22943 -10.52579 88.649898 10.074457 2.73646 30.323252 56.438835 5.941292 11.047033 -157.005528 -28.807419 169.110544 -41.971166 5.039049 -12.867561 179.973528 -1.679794 -102.028296 -3.135085 -3.729224 -5.300839 102.275371 -43.190633 38.570933 -52.507006 -31.162526 -10.628264 -115.461879 5.702809 94.326565 28.754001 -34.261483 -69.056014 -86.249913 29.124955 62.713794 -77.087459 34.385136 114.057611 -175.705702 7.128456 -153.398458 148.154674 55.097111 -145.634771 -70.101306 46.912219 165.07723 31.458166 -71.188206 -72.660607 151.55872 -38.058889 -168.18435 77.978474 -15.53817 124.453677 150.072705 -30.230186 81.849165 -12.161958 -22.717814 12.440709 -179.694053 -8.400016 -95.358892 50.072861 -28.856734 41.444505 24.495806 -3.227542 -6.020977 45.462888 -70.606024 166.888507 169.377575 21.395389 -120.113849 -15.056958 -20.754659 -40.765469 30.597847 74.008074 -29.245357 132.989231 84.772505 -79.671409 -77.250076 -59.444024 -99.002001 -85.712034 68.609426 65.877433 -109.016839 62.974997 -38.255535 101.891179 11.92048 114.534401 72.332742 10.958608 86.282837 -166.567108 3.281816 -171.080921 109.322554 32.640938 42.758934 -88.172106 -11.044662 -89.649708 -68.955015 3.577439 89.743067 -151.197005 -34.631567 -10.054713
0.0119 64.0204 -2.2512 -10.128505 14.460123 7.471884 -0.329148 11.65329 0.053053 7.784462 -12.466128 4.055799 13.538073 14.0927 47.216131 -32.34464 -20.800602 -29.342052 -10.518539 -1.020148 11.048445 39.699726 11.851917 32.08246 -27.605294 58.663627 31.312976 116.5169 -47.271108 58.372766 -115.721289 -43.021042 96.530752 -176.956821 -13.913031 128.901519 -148.305643 -8.276978 77.948548 27.21771 -41.572966 -20.951096 14.723461 -7.762857 13.260824 -164.46265 72.084253 64.811597 -172.50805 -33.373124 141.504424 -8.452337 -2.437905 -0.961462 -103.848854 74.044602 90.608941 -26.565695 16.40296 33.500035 -52.374739 -29.944335 -70.917168 106.189985 -34.833672 94.948338 2.946333 16.756846 -10.802228 -75.000559 -16.432242 -120.944711 3.561592 4.416213 -87.573063 -4.259387 -13.489705 21.619315 -128.427565 -48.148631 -56.003943 91.205336 -25.606071 145.65434 -10.401627 20.298103 -14.041053 168.214641 -2.914321 -95.498589 54.717869 47.299952 -29.152625 -2.505973 0.538358 -10.421927 155.236864 -20.70599 169.677241 84.925254 -43.666724 98.049186 116.181588 -84.510109 83.360821 -64.131716 13.071891 99.452299 20.607091 0.75403 10.042102 -53.703012 -9.748802 -0.0 48.91312 56.871958 162.095422 -30.062509 61.132285 144.433028 2.705774 -3.497071 -3.31193 53.531184 -43.059766 111.994423 85.850701 30.563315 75.820684 162.607 24.927849 149.45729
0.6796 66.3583 -2.6517 -8.623175 25.346669 6.773253 1.041979 1.006514 134.00354 -4.533874 -5.107077 -129.894247 4.353178 5.688551 25.712608 -6.616562 -24.562013 -6.910119 -20.291067 -2.649729 14.728323 26.475547 -0.31978 -1.359298 -156.161085 -27.926423 174.575932 138.534734 -11.809165 -176.369174 -83.259338 -22.497995 57.544055 -154.535881 -46.256807 167.924519 -34.661591 58.289767 48.234637 34.923194 -66.426477 45.454018 37.49715 -37.314455 3.049536 150.284912 64.177327 -159.047895 -154.338412 -54.64077 154.457577 7.708997 -73.99147 39.85795 -7.954723 32.946516 3.684896 9.792074 63.458168 -6.571147 -42.105 57.148029 70.058372 -109.660651 70.700866 -101.245642 130.736498 32.830287 -137.624036 100.857419 -17.29825 71.164203 -179.268497 -77.349277 109.786521 7.463452 1.559246 18.032666 0.754938 8.291519 -21.23331 -11.843734 0.679719 -29.370364 10.052671 35.038153 -45.721675 12.585504 23.578052 48.659226 77.928629 58.811666 -77.29243 0.093085 -26.496032 19.753429 155.596806 -8.249756 -158.718294 161.248304 51.997009 -144.987729 79.431903 56.328648 -98.573294 122.038227 2.685763 162.249714 -64.4949 12.339626 -45.566359 54.958391 6.46568 0.0 -51.784244 50.536535 13.168635 164.002783 -19.430228 -24.531508 45.061995 43.019637 70.604434 -94.166029 -20.440329 -7.603949 83.885166 47.206195 13.645327 -94.626867 74.398597 0.421739
0.7306 66.95410000000001 -2.4775 -7.439622 33.900638 5.31374 6.043334 0.609167 -88.497955 -3.074048 0.877444 92.829045 -13.038869 12.967095 -94.991842 28.881761 26.127027 104.456236 -36.792651 1.737752 -5.221777 30.513719 -4.065127 -14.826642 -6.615939 32.802119 6.933913 11.475062 69.524713 63.390732 -71.917837 -75.226402 23.703065 -14.873716 -51.961586 -21.675329 173.9447 -38.177003 72.088539 155.145864 -53.20119 92.621042 -21.593911 5.980594 17.570801 21.425244 48.747289 19.748304 -82.425139 64.411182 81.099107 17.933835 -45.542428 25.681744 5.647858 -13.880666 0.426885 -0.828465 31.124898 -19.769801 -15.970799 -39.939625 38.965511 45.528343 -12.137197 -94.807958 -14.546389 -25.939742 -9.096826 106.598102 -7.891988 -93.57456 -150.676234 -24.236439 120.945602 15.71889 38.294636 3.598306 166.17764 -12.398202 -85.9025 -6.285043 7.143549 -22.202722 0.759927 -28.694493 -18.910328 164.351654 -51.86026 -142.86396 159.862446 5.716244 -141.679218 0.391677 16.819986 -17.400785 86.61544 54.00805 -91.651958 -39.616431 -24.40378 -16.160153 -148.201097 -59.613821 -169.947439 144.205627 -38.552502 97.20702 -59.20565 5.842897 -23.910684 52.830349 -14.162715 -100.509766 -88.244182 -22.801927 -68.5359 -55.098688 50.088575 167.131807 24.422691 11.061754 52.609276 -54.727628 -39.607026 -42.950047 -63.271513 73.918144 -24.417392 126.494508 -58.378198 -151.151561
-0.0199 66.0643 -2.1159 -3.566009 35.97818 7.784246 -0.02878 1.844926 -0.0 3.582275 2.72458 3.720525 1.835133 13.628605 141.307452 -26.852035 19.358049 -122.066594 -45.676705 3.306325 -7.840643 18.79232 -3.793698 -22.634746 -150.383819 -65.437604 -175.656627 -20.381725 29.13542 -36.265239 13.455644 -67.315232 -118.36379 -157.386943 21.191409 135.532961 179.751008 -19.348875 87.156936 103.395264 -64.998891 74.248342 -150.261309 -5.290681 116.059746 -173.730026 19.236644 126.745364 -37.258383 48.898204 36.172718 -37.389679 62.62416 25.825865 16.262042 -14.300725 1.6005 -27.960499 -67.735306 -31.712054 -172.974779 53.287973 163.160654 160.903099 -17.802727 133.474993 83.928725 56.141853 -88.510318 75.745821 -24.320649 27.901407 152.527752 -69.964487 82.852112 2.782118 -4.937736 0.861214 -90.832971 -60.774001 -21.478422 173.659821 -17.601945 -31.354011 -9.898813 -51.783031 -21.549977 173.056261 77.641162 -166.148234 93.030714 66.044185 -81.580556 -13.171226 19.86756 0.222496 77.40724 -79.230416 93.972169 8.301158 30.546401 6.255009 177.127814 -25.87162 -169.270483 -174.008518 -25.446955 176.934772 -130.425261 62.324845 -52.970046 145.123701 35.886043 82.448864 89.744382 2.952631 -3.209054 -54.804808 -62.273267 -140.323559 -9.826539 -13.918337 10.086722 21.327238 -49.093601 149.014139 85.529601 -32.751176 161.475052 -10.742063 57.970806 123.638743
-0.9519 65.374 -1.466 0.056667 35.497617 9.636851 -4.45523 2.980223 0.046343 4.87711 1.841205 4.951126 -13.677871 8.652776 -74.935627 33.074085 12.493858 83.3634 -42.914195 4.743845 -12.031936 16.317746 -1.432881 -9.969609 -125.173808 -74.18823 -148.121735 -47.314711 -17.760706 -45.427196 -4.10259 -10.912118 -127.646344 -165.5253 8.530988 142.601467 -3.459 -10.079888 -1.516455 29.45274 -62.365882 -40.98911 -151.818764 -31.966592 131.518832 -135.172165 80.14342 123.835713 -133.802943 29.82387 122.020737 -166.676829 -51.047545 139.91006 18.050703 -13.370854 4.719879 -22.490886 61.997438 15.213531 156.501054 35.936719 -159.040393 -10.020531 -62.67708 65.648371 136.524077 31.3736 -135.118636 -114.601145 24.528475 114.240123 88.053427 -10.097089 -123.826652 -129.927383 -72.173085 -112.740987 -21.710668 -9.746619 18.116017 101.260165 3.986026 -14.769088 13.954293 -30.333598 -11.072632 120.049329 -6.979821 -156.718605 169.647451 -31.992996 -152.25432 110.200501 55.168227 -101.087074 -1.418718 14.951381 -0.201887 133.300665 -45.615838 155.322822 -17.437718 -50.576933 -52.607151 115.762671 -8.733245 57.748669 -97.181751 28.113156 -46.517961 99.934989 1.631932 -180.0 106.826927 -65.301227 -146.984853 -9.86076 -58.702647 79.450323 -93.32953 46.325475 -68.796635 150.839702 19.354355 -120.708351 -80.989342 -66.071405 -1.696688 69.1782 -36.158336 140.205965
-1.6733000000000002 65.2228 -0.6762 3.538408 38.312365 10.340798 -7.21405 3.263868 -114.217997 -3.743034 3.923344 118.134578 -10.377526 15.532179 -82.593275 36.415968 11.109656 91.486536 -38.21157 2.141727 -6.177647 17.283951 0.876804 5.764253 -151.866867 -42.199576 -179.789466 -44.954834 6.329131 -15.027842 87.271587 -22.962107 -94.056864 -79.364851 61.037784 58.780383 -86.987132 38.021366 35.426264 -135.418461 -35.128894 61.735417 -147.801679 -33.802039 129.196457 -143.143679 7.184096 147.52242 0.754585 0.764419 13.009315 -167.139215 -54.658682 167.756167 -58.985505 -84.374964 -89.761978 23.079985 -23.106825 16.487519 -137.934643 -54.872668 -84.44536 -136.088999 6.058532 -71.340412 172.289821 -50.221463 -153.969172 -87.077069 23.657019 17.82288 -167.675186 -43.078757 -50.77246 169.631613 19.351704 -143.453369 -179.554253 -41.404374 -103.724627 -9.666555 -22.387597 18.090659 168.246087 1.727199 -101.751277 -77.984193 -38.808743 -78.354899 10.342276 14.993953 3.258766 14.738124 44.612183 -19.496999 149.743281 8.379594 167.32237 137.754762 59.62887 -151.934298 157.94495 -14.855267 178.688957 97.592041 42.11507 -105.803055 55.875158 51.210063 45.423643 -120.938389 4.452679 92.664319 105.046888 -51.844955 -138.35063 -17.521587 -50.408477 67.883571 -9.424725 -8.453544 10.785351 18.305177 -46.637861 13.775001 -21.861779 82.898034 102.756693 -75.318819 36.011138 -29.290569
